<svg xmlns="http://www.w3.org/2000/svg" xmlns:xlink="http://www.w3.org/1999/xlink" version="1.1" data-diagram-type="CLASS" style="width:512px;height:603px;background:#FFFFFF;" width="512px" height="603px" viewBox="0 0 512 603" zoomAndPan="magnify" preserveAspectRatio="none" contentStyleType="text/css"><?plantuml 1.2026.7beta11?><defs/><g font-family="sans-serif" lengthAdjust="spacing"><g class="title" data-source-line="1"><text x="220.71" y="22.995" fill="#000" font-size="14" textLength="63.834" font-weight="700">Untitled</text></g><!--class :CFIHOS-3000521T--><g class="entity" data-qualified-name=".CFIHOS-3000521T" id="ent0001" data-source-line="2"><a target="_top" href="http://data.cfihos.org/rdl/CFIHOS-3000521T" xlink:href="http://data.cfihos.org/rdl/CFIHOS-3000521T" xlink:type="simple" xlink:actuate="onRequest" xlink:show="new" title="http://data.cfihos.org/rdl/CFIHOS-3000521T" xlink:title="http://data.cfihos.org/rdl/CFIHOS-3000521T"><rect x="7" y="44.297" width="165.062" height="48" fill="#F1F1F1" style="stroke:#181818;stroke-width:0.5;" rx="2.5" ry="2.5"/><ellipse cx="22" cy="60.297" rx="11" ry="11" fill="#ADD1B2" style="stroke:#181818;stroke-width:1;"/><path d="M24.969,65.938 Q24.391,66.234 23.75,66.375 Q23.109,66.531 22.406,66.531 Q19.906,66.531 18.578,64.891 Q17.266,63.234 17.266,60.109 Q17.266,56.984 18.578,55.328 Q19.906,53.672 22.406,53.672 Q23.109,53.672 23.75,53.828 Q24.406,53.984 24.969,54.281 L24.969,57 Q24.344,56.422 23.75,56.156 Q23.156,55.875 22.531,55.875 Q21.188,55.875 20.5,56.953 Q19.813,58.016 19.813,60.109 Q19.813,62.203 20.5,63.281 Q21.188,64.344 22.531,64.344 Q23.156,64.344 23.75,64.078 Q24.344,63.797 24.969,63.219 L24.969,65.938 Z " fill="#000"/><text x="36" y="65.144" fill="#000" font-size="14" textLength="133.062">:CFIHOS-3000521T</text><line x1="8" y1="76.297" x2="171.062" y2="76.297" style="stroke:#181818;stroke-width:0.5;"/><line x1="8" y1="84.297" x2="171.062" y2="84.297" style="stroke:#181818;stroke-width:0.5;"/></a></g><!--class alice:2384--><g class="entity" data-qualified-name="alice.2384" id="ent0002" data-source-line="2"><a target="_top" href="http://example.org/2384" xlink:href="http://example.org/2384" xlink:type="simple" xlink:actuate="onRequest" xlink:show="new" title="http://example.org/2384" xlink:title="http://example.org/2384"><rect x="37.02" y="153.297" width="105.015" height="48" fill="#F1F1F1" style="stroke:#181818;stroke-width:0.5;" rx="2.5" ry="2.5"/><ellipse cx="52.02" cy="169.297" rx="11" ry="11" fill="#ADD1B2" style="stroke:#181818;stroke-width:1;"/><path d="M54.989,174.938 Q54.411,175.234 53.77,175.375 Q53.129,175.531 52.426,175.531 Q49.926,175.531 48.598,173.891 Q47.286,172.234 47.286,169.109 Q47.286,165.984 48.598,164.328 Q49.926,162.672 52.426,162.672 Q53.129,162.672 53.77,162.828 Q54.426,162.984 54.989,163.281 L54.989,166 Q54.364,165.422 53.77,165.156 Q53.176,164.875 52.551,164.875 Q51.207,164.875 50.52,165.953 Q49.832,167.016 49.832,169.109 Q49.832,171.203 50.52,172.281 Q51.207,173.344 52.551,173.344 Q53.176,173.344 53.77,173.078 Q54.364,172.797 54.989,172.219 L54.989,174.938 Z " fill="#000"/><text x="66.02" y="174.144" fill="#000" font-size="14" textLength="73.015">alice:2384</text><line x1="38.02" y1="185.297" x2="141.035" y2="185.297" style="stroke:#181818;stroke-width:0.5;"/><line x1="38.02" y1="193.297" x2="141.035" y2="193.297" style="stroke:#181818;stroke-width:0.5;"/></a></g><!--class :CFIHOS-10000036--><g class="entity" data-qualified-name=".CFIHOS-10000036" id="ent0004" data-source-line="3"><a target="_top" href="http://data.cfihos.org/rdl/CFIHOS-10000036" xlink:href="http://data.cfihos.org/rdl/CFIHOS-10000036" xlink:type="simple" xlink:actuate="onRequest" xlink:show="new" title="http://data.cfihos.org/rdl/CFIHOS-10000036" xlink:title="http://data.cfihos.org/rdl/CFIHOS-10000036"><rect x="176.82" y="153.297" width="165.417" height="48" fill="#F1F1F1" style="stroke:#181818;stroke-width:0.5;" rx="2.5" ry="2.5"/><ellipse cx="191.82" cy="169.297" rx="11" ry="11" fill="#ADD1B2" style="stroke:#181818;stroke-width:1;"/><path d="M194.789,174.938 Q194.211,175.234 193.57,175.375 Q192.929,175.531 192.226,175.531 Q189.726,175.531 188.398,173.891 Q187.086,172.234 187.086,169.109 Q187.086,165.984 188.398,164.328 Q189.726,162.672 192.226,162.672 Q192.929,162.672 193.57,162.828 Q194.226,162.984 194.789,163.281 L194.789,166 Q194.164,165.422 193.57,165.156 Q192.976,164.875 192.351,164.875 Q191.008,164.875 190.32,165.953 Q189.633,167.016 189.633,169.109 Q189.633,171.203 190.32,172.281 Q191.008,173.344 192.351,173.344 Q192.976,173.344 193.57,173.078 Q194.164,172.797 194.789,172.219 L194.789,174.938 Z " fill="#000"/><text x="205.82" y="174.144" fill="#000" font-size="14" textLength="133.417">:CFIHOS-10000036</text><line x1="177.82" y1="185.297" x2="341.237" y2="185.297" style="stroke:#181818;stroke-width:0.5;"/><line x1="177.82" y1="193.297" x2="341.237" y2="193.297" style="stroke:#181818;stroke-width:0.5;"/></a></g><!--class alice:7342--><g class="entity" data-qualified-name="alice.7342" id="ent0005" data-source-line="3"><a target="_top" href="http://example.org/7342" xlink:href="http://example.org/7342" xlink:type="simple" xlink:actuate="onRequest" xlink:show="new" title="http://example.org/7342" xlink:title="http://example.org/7342"><rect x="122.02" y="278.297" width="105.015" height="48" fill="#F1F1F1" style="stroke:#181818;stroke-width:0.5;" rx="2.5" ry="2.5"/><ellipse cx="137.02" cy="294.297" rx="11" ry="11" fill="#ADD1B2" style="stroke:#181818;stroke-width:1;"/><path d="M139.989,299.938 Q139.411,300.234 138.77,300.375 Q138.129,300.531 137.426,300.531 Q134.926,300.531 133.598,298.891 Q132.286,297.234 132.286,294.109 Q132.286,290.984 133.598,289.328 Q134.926,287.672 137.426,287.672 Q138.129,287.672 138.77,287.828 Q139.426,287.984 139.989,288.281 L139.989,291 Q139.364,290.422 138.77,290.156 Q138.176,289.875 137.551,289.875 Q136.207,289.875 135.52,290.953 Q134.832,292.016 134.832,294.109 Q134.832,296.203 135.52,297.281 Q136.207,298.344 137.551,298.344 Q138.176,298.344 138.77,298.078 Q139.364,297.797 139.989,297.219 L139.989,299.938 Z " fill="#000"/><text x="151.02" y="299.144" fill="#000" font-size="14" textLength="73.015">alice:7342</text><line x1="123.02" y1="310.297" x2="226.035" y2="310.297" style="stroke:#181818;stroke-width:0.5;"/><line x1="123.02" y1="318.297" x2="226.035" y2="318.297" style="stroke:#181818;stroke-width:0.5;"/></a></g><!--class :ObjectReferenceTypeDatum--><g class="entity" data-qualified-name=".ObjectReferenceTypeDatum" id="ent0007" data-source-line="4"><a target="_top" href="http://data.cfihos.org/rdl/ObjectReferenceTypeDatum" xlink:href="http://data.cfihos.org/rdl/ObjectReferenceTypeDatum" xlink:type="simple" xlink:actuate="onRequest" xlink:show="new" title="http://data.cfihos.org/rdl/ObjectReferenceTypeDatum" xlink:title="http://data.cfihos.org/rdl/ObjectReferenceTypeDatum"><rect x="261.81" y="278.297" width="235.444" height="48" fill="#F1F1F1" style="stroke:#181818;stroke-width:0.5;" rx="2.5" ry="2.5"/><ellipse cx="276.81" cy="294.297" rx="11" ry="11" fill="#ADD1B2" style="stroke:#181818;stroke-width:1;"/><path d="M279.779,299.938 Q279.201,300.234 278.56,300.375 Q277.919,300.531 277.216,300.531 Q274.716,300.531 273.388,298.891 Q272.076,297.234 272.076,294.109 Q272.076,290.984 273.388,289.328 Q274.716,287.672 277.216,287.672 Q277.919,287.672 278.56,287.828 Q279.216,287.984 279.779,288.281 L279.779,291 Q279.154,290.422 278.56,290.156 Q277.966,289.875 277.341,289.875 Q275.998,289.875 275.31,290.953 Q274.623,292.016 274.623,294.109 Q274.623,296.203 275.31,297.281 Q275.998,298.344 277.341,298.344 Q277.966,298.344 278.56,298.078 Q279.154,297.797 279.779,297.219 L279.779,299.938 Z " fill="#000"/><text x="290.81" y="299.144" fill="#000" font-size="14" textLength="203.444">:ObjectReferenceTypeDatum</text><line x1="262.81" y1="310.297" x2="496.254" y2="310.297" style="stroke:#181818;stroke-width:0.5;"/><line x1="262.81" y1="318.297" x2="496.254" y2="318.297" style="stroke:#181818;stroke-width:0.5;"/></a></g><!--class alice:7422--><g class="entity" data-qualified-name="alice.7422" id="ent0008" data-source-line="4"><a target="_top" href="http://example.org/7422" xlink:href="http://example.org/7422" xlink:type="simple" xlink:actuate="onRequest" xlink:show="new" title="http://example.org/7422" xlink:title="http://example.org/7422"><rect x="225.02" y="403.297" width="105.015" height="48" fill="#F1F1F1" style="stroke:#181818;stroke-width:0.5;" rx="2.5" ry="2.5"/><ellipse cx="240.02" cy="419.297" rx="11" ry="11" fill="#ADD1B2" style="stroke:#181818;stroke-width:1;"/><path d="M242.989,424.938 Q242.411,425.234 241.77,425.375 Q241.129,425.531 240.426,425.531 Q237.926,425.531 236.598,423.891 Q235.286,422.234 235.286,419.109 Q235.286,415.984 236.598,414.328 Q237.926,412.672 240.426,412.672 Q241.129,412.672 241.77,412.828 Q242.426,412.984 242.989,413.281 L242.989,416 Q242.364,415.422 241.77,415.156 Q241.176,414.875 240.551,414.875 Q239.208,414.875 238.52,415.953 Q237.833,417.016 237.833,419.109 Q237.833,421.203 238.52,422.281 Q239.208,423.344 240.551,423.344 Q241.176,423.344 241.77,423.078 Q242.364,422.797 242.989,422.219 L242.989,424.938 Z " fill="#000"/><text x="254.02" y="424.144" fill="#000" font-size="14" textLength="73.015">alice:7422</text><line x1="226.02" y1="435.297" x2="329.035" y2="435.297" style="stroke:#181818;stroke-width:0.5;"/><line x1="226.02" y1="443.297" x2="329.035" y2="443.297" style="stroke:#181818;stroke-width:0.5;"/></a></g><!--class :COMPANY--><g class="entity" data-qualified-name=".COMPANY" id="ent0010" data-source-line="5"><a target="_top" href="http://data.cfihos.org/rdl/COMPANY" xlink:href="http://data.cfihos.org/rdl/COMPANY" xlink:type="simple" xlink:actuate="onRequest" xlink:show="new" title="http://data.cfihos.org/rdl/COMPANY" xlink:title="http://data.cfihos.org/rdl/COMPANY"><rect x="365.21" y="403.297" width="106.635" height="48" fill="#F1F1F1" style="stroke:#181818;stroke-width:0.5;" rx="2.5" ry="2.5"/><ellipse cx="380.21" cy="419.297" rx="11" ry="11" fill="#ADD1B2" style="stroke:#181818;stroke-width:1;"/><path d="M383.179,424.938 Q382.601,425.234 381.96,425.375 Q381.319,425.531 380.616,425.531 Q378.116,425.531 376.788,423.891 Q375.476,422.234 375.476,419.109 Q375.476,415.984 376.788,414.328 Q378.116,412.672 380.616,412.672 Q381.319,412.672 381.96,412.828 Q382.616,412.984 383.179,413.281 L383.179,416 Q382.554,415.422 381.96,415.156 Q381.366,414.875 380.741,414.875 Q379.398,414.875 378.71,415.953 Q378.023,417.016 378.023,419.109 Q378.023,421.203 378.71,422.281 Q379.398,423.344 380.741,423.344 Q381.366,423.344 381.96,423.078 Q382.554,422.797 383.179,422.219 L383.179,424.938 Z " fill="#000"/><text x="394.21" y="424.144" fill="#000" font-size="14" textLength="74.635">:COMPANY</text><line x1="366.21" y1="435.297" x2="470.845" y2="435.297" style="stroke:#181818;stroke-width:0.5;"/><line x1="366.21" y1="443.297" x2="470.845" y2="443.297" style="stroke:#181818;stroke-width:0.5;"/></a></g><!--class :5389--><g class="entity" data-qualified-name=".5389" id="ent0011" data-source-line="5"><a target="_top" href="http://data.cfihos.org/rdl/5389" xlink:href="http://data.cfihos.org/rdl/5389" xlink:type="simple" xlink:actuate="onRequest" xlink:show="new" title="http://data.cfihos.org/rdl/5389" xlink:title="http://data.cfihos.org/rdl/5389"><rect x="311.36" y="528.297" width="72.346" height="48" fill="#F1F1F1" style="stroke:#181818;stroke-width:0.5;" rx="2.5" ry="2.5"/><ellipse cx="326.36" cy="544.297" rx="11" ry="11" fill="#ADD1B2" style="stroke:#181818;stroke-width:1;"/><path d="M329.329,549.938 Q328.751,550.234 328.11,550.375 Q327.469,550.531 326.766,550.531 Q324.266,550.531 322.938,548.891 Q321.626,547.234 321.626,544.109 Q321.626,540.984 322.938,539.328 Q324.266,537.672 326.766,537.672 Q327.469,537.672 328.11,537.828 Q328.766,537.984 329.329,538.281 L329.329,541 Q328.704,540.422 328.11,540.156 Q327.516,539.875 326.891,539.875 Q325.548,539.875 324.86,540.953 Q324.173,542.016 324.173,544.109 Q324.173,546.203 324.86,547.281 Q325.548,548.344 326.891,548.344 Q327.516,548.344 328.11,548.078 Q328.704,547.797 329.329,547.219 L329.329,549.938 Z " fill="#000"/><text x="340.36" y="549.144" fill="#000" font-size="14" textLength="40.346">:5389</text><line x1="312.36" y1="560.297" x2="382.706" y2="560.297" style="stroke:#181818;stroke-width:0.5;"/><line x1="312.36" y1="568.297" x2="382.706" y2="568.297" style="stroke:#181818;stroke-width:0.5;"/></a></g><!--reverse link :CFIHOS-3000521T to alice:2384--><g class="link" data-entity-1="ent0001" data-entity-2="ent0002" id="lnk3" data-source-line="2" data-link-type="extension"><path d="M89.53,110.777 C89.53,128.617 89.53,135.047 89.53,152.867" style="stroke:#181818;stroke-width:1;" fill="none" id=":CFIHOS-3000521T-backto-alice:2384" codeLine="2"/><polygon points="89.53,92.777,83.53,110.777,95.53,110.777,89.53,92.777" fill="none" style="stroke:#181818;stroke-width:1;stroke-linejoin:miter;stroke-miterlimit:10;"/></g><!--reverse link :CFIHOS-10000036 to alice:7342--><g class="link" data-entity-1="ent0004" data-entity-2="ent0005" id="lnk6" data-source-line="3" data-link-type="extension"><path d="M236.259,217.051 C227.869,230.831 226.14,233.117 215.53,248.297 C208.6,258.217 200.54,268.817 193.4,277.917" style="stroke:#181818;stroke-width:1;" fill="none" id=":CFIHOS-10000036-backto-alice:7342" codeLine="3"/><polygon points="245.62,201.677,231.134,213.931,241.384,220.172,245.62,201.677" fill="none" style="stroke:#181818;stroke-width:1;stroke-linejoin:miter;stroke-miterlimit:10;"/></g><!--reverse link :ObjectReferenceTypeDatum to alice:7422--><g class="link" data-entity-1="ent0007" data-entity-2="ent0008" id="lnk9" data-source-line="4" data-link-type="extension"><path d="M348.621,340.573 C330.471,362.463 315.01,381.097 296.88,402.957" style="stroke:#181818;stroke-width:1;" fill="none" id=":ObjectReferenceTypeDatum-backto-alice:7422" codeLine="4"/><polygon points="360.11,326.717,344.002,336.744,353.24,344.403,360.11,326.717" fill="none" style="stroke:#181818;stroke-width:1;stroke-linejoin:miter;stroke-miterlimit:10;"/></g><!--reverse link :COMPANY to :5389--><g class="link" data-entity-1="ent0010" data-entity-2="ent0011" id="lnk12" data-source-line="5" data-link-type="extension"><path d="M405.31,468.485 C400.42,482.525 399.21,483.517 390.53,498.297 C384.47,508.617 376.5,519.047 369.07,527.887" style="stroke:#181818;stroke-width:1;" fill="none" id=":COMPANY-backto-:5389" codeLine="5"/><polygon points="411.23,451.487,399.643,466.512,410.976,470.459,411.23,451.487" fill="none" style="stroke:#181818;stroke-width:1;stroke-linejoin:miter;stroke-miterlimit:10;"/></g><!--link alice:2384 to alice:7342--><g class="link" data-entity-1="ent0002" data-entity-2="ent0005" id="lnk13" data-source-line="22" data-link-type="dependency"><path d="M96.85,201.547 C101.95,215.777 109.61,233.937 119.53,248.297 C126.92,258.987 133.044,265.866 142.314,274.466" style="stroke:#181818;stroke-width:1;" fill="none" id="alice:2384-to-alice:7342" codeLine="22"/><polygon points="145.98,277.867,142.103,268.813,142.314,274.466,136.662,274.678,145.98,277.867" fill="#181818" style="stroke:#181818;stroke-width:1;stroke-linejoin:miter;stroke-miterlimit:10;"/><a target="_top" href="http://data.cfihos.org/rdl/hasAssigned" xlink:href="http://data.cfihos.org/rdl/hasAssigned" xlink:type="simple" xlink:actuate="onRequest" xlink:show="new" title="http://data.cfihos.org/rdl/hasAssigned" xlink:title="http://data.cfihos.org/rdl/hasAssigned"><text x="120.53" y="244.364" fill="#00F" font-size="13" textLength="86.15" text-decoration="underline">:hasAssigned</text></a></g><!--link alice:7342 to alice:7422--><g class="link" data-entity-1="ent0005" data-entity-2="ent0008" id="lnk14" data-source-line="23" data-link-type="dependency"><path d="M194.15,326.717 C212.47,348.607 236.469,377.264 254.779,399.124" style="stroke:#181818;stroke-width:1;" fill="none" id="alice:7342-to-alice:7422" codeLine="23"/><polygon points="257.99,402.957,255.277,393.489,254.779,399.124,249.145,398.626,257.99,402.957" fill="#181818" style="stroke:#181818;stroke-width:1;stroke-linejoin:miter;stroke-miterlimit:10;"/><a target="_top" href="http://data.cfihos.org/rdl/hasDatum" xlink:href="http://data.cfihos.org/rdl/hasDatum" xlink:type="simple" xlink:actuate="onRequest" xlink:show="new" title="http://data.cfihos.org/rdl/hasDatum" xlink:title="http://data.cfihos.org/rdl/hasDatum"><text x="232.53" y="369.364" fill="#00F" font-size="13" textLength="71.335" text-decoration="underline">:hasDatum</text></a></g><!--link alice:7422 to :5389--><g class="link" data-entity-1="ent0008" data-entity-2="ent0011" id="lnk15" data-source-line="24" data-link-type="dependency"><path d="M290.86,451.717 C303.32,473.607 319.337,501.751 331.777,523.611" style="stroke:#181818;stroke-width:1;" fill="none" id="alice:7422-to-:5389" codeLine="24"/><polygon points="334.25,527.957,333.275,518.156,331.777,523.611,326.322,522.113,334.25,527.957" fill="#181818" style="stroke:#181818;stroke-width:1;stroke-linejoin:miter;stroke-miterlimit:10;"/><a target="_top" href="http://data.cfihos.org/rdl/hasValue" xlink:href="http://data.cfihos.org/rdl/hasValue" xlink:type="simple" xlink:actuate="onRequest" xlink:show="new" title="http://data.cfihos.org/rdl/hasValue" xlink:title="http://data.cfihos.org/rdl/hasValue"><text x="317.53" y="494.364" fill="#00F" font-size="13" textLength="64.067" text-decoration="underline">:hasValue</text></a></g><g class="footer" data-source-line="25"><text x="110.425" y="594.579" fill="#888" font-size="10" textLength="68.496">Generated by</text><a target="_top" href="https://github.com/edmondchuc/ontogram" xlink:href="https://github.com/edmondchuc/ontogram" xlink:type="simple" xlink:actuate="onRequest" xlink:show="new" title="https://github.com/edmondchuc/ontogram" xlink:title="https://github.com/edmondchuc/ontogram"><text x="182.1" y="594.579" fill="#00F" font-size="10" textLength="212.729" text-decoration="underline">https://github.com/edmondchuc/ontogram</text></a></g><?plantuml-src ZP5TQuCm68Nl_HKXzrQhxTR961J7FYwsZhKRZE956by_XYR5H5ZPzj_NP1O_iA8tCRpdFBmdHwOo0_J6f3f30tl-tUF3QcswjctFdUa6e-iVqqIOP2a5pt4NCroBfhRwt8kswDATEKgqsdq2bQyGGG6CmkQmXriYoxoZdZbQxQ-UNfRF7wUXDtSNLzZmCo84wjbgkqsat7kM5H999ZHA4oucl8Yj8ioiZZe8qBVnssNLouzXdTGTrlcCWz1pjkwcfpSPtl1VrVOs-ghTy4NoVGRQgKPz5jrUlqMDUYsgmZEMuwWJIXSxd4X9AbShY6dUjDVq41u49KGiXKXZ1Y7o6fSWm4OBr2JhD2F8kZ6DhRghcHgXcLNS4RXtafMWSVfFuIWm2GMAE5V7FJ0eY3n6sHsgznD7N9pAfDnDACyj27FEGfgKrE9CyhWWEHed2u8_?></g></svg>