<?xml version="1.0" encoding="UTF-8" standalone="no"?><svg xmlns="http://www.w3.org/2000/svg" xmlns:xlink="http://www.w3.org/1999/xlink" contentStyleType="text/css" height="665px" preserveAspectRatio="none" style="width:567px;height:665px;background:#FFFFFF;" version="1.1" viewBox="0 0 567 665" width="567px" zoomAndPan="magnify"><defs/><g><rect fill="none" height="26.2969" id="_title" style="stroke:none;stroke-width:1.0;" width="71" x="241.25" y="5"/><text fill="#000000" font-family="sans-serif" font-size="14" font-weight="bold" lengthAdjust="spacing" textLength="61" x="246.25" y="22.9951">Untitled</text><!--MD5=[98e7f2cb06b277808ee3a1bdd2aecd51]
class :CFIHOS-3000521T--><a href="http://data.cfihos.org/rdl/CFIHOS-3000521T" target="_top" title="http://data.cfihos.org/rdl/CFIHOS-3000521T" xlink:actuate="onRequest" xlink:href="http://data.cfihos.org/rdl/CFIHOS-3000521T" xlink:show="new" xlink:title="http://data.cfihos.org/rdl/CFIHOS-3000521T" xlink:type="simple"><g id="elem_:CFIHOS-3000521T"><rect codeLine="6" fill="#ADD8E6" height="64.2969" id=":CFIHOS-3000521T" rx="2.5" ry="2.5" style="stroke:#181818;stroke-width:0.5;" width="205" x="7" y="44.2969"/><ellipse cx="40" cy="60.2969" fill="#ADD1B2" rx="11" ry="11" style="stroke:#181818;stroke-width:1.0;"/><path d="M42.9688,65.9375 Q42.3906,66.2344 41.75,66.375 Q41.1094,66.5313 40.4063,66.5313 Q37.9063,66.5313 36.5781,64.8906 Q35.2656,63.2344 35.2656,60.1094 Q35.2656,56.9844 36.5781,55.3281 Q37.9063,53.6719 40.4063,53.6719 Q41.1094,53.6719 41.75,53.8281 Q42.4063,53.9844 42.9688,54.2813 L42.9688,57 Q42.3438,56.4219 41.75,56.1563 Q41.1563,55.875 40.5313,55.875 Q39.1875,55.875 38.5,56.9531 Q37.8125,58.0156 37.8125,60.1094 Q37.8125,62.2031 38.5,63.2813 Q39.1875,64.3438 40.5313,64.3438 Q41.1563,64.3438 41.75,64.0781 Q42.3438,63.7969 42.9688,63.2188 L42.9688,65.9375 Z " fill="#000000"/><text fill="#000000" font-family="sans-serif" font-size="14" lengthAdjust="spacing" textLength="133" x="58" y="65.1436">:CFIHOS-3000521T</text><line style="stroke:#181818;stroke-width:0.5;" x1="8" x2="211" y1="76.2969" y2="76.2969"/><text fill="#000000" font-family="sans-serif" font-size="14" lengthAdjust="spacing" textLength="193" x="13" y="93.292">rdfs:label "centrifugal pump"</text><line style="stroke:#181818;stroke-width:0.5;" x1="8" x2="211" y1="100.5938" y2="100.5938"/></g></a><!--MD5=[d2dabc89b2bea9a6f98e10bb98510408]
class ex:2384--><a href="http://example.org/2384" target="_top" title="http://example.org/2384" xlink:actuate="onRequest" xlink:href="http://example.org/2384" xlink:show="new" xlink:title="http://example.org/2384" xlink:type="simple"><g id="elem_ex:2384"><rect codeLine="18" fill="#90EE90" height="48" id="ex:2384" rx="2.5" ry="2.5" style="stroke:#181818;stroke-width:0.5;" width="89" x="65" y="177.2969"/><ellipse cx="80" cy="193.2969" fill="#FF7700" rx="11" ry="11" style="stroke:#181818;stroke-width:1.0;"/><path d="M76.3281,190.5 L81.1563,190.5 L81.1563,197.9219 L84.1719,197.9219 L84.1719,199.7969 L75.6875,199.7969 L75.6875,197.9219 L78.7188,197.9219 L78.7188,192.375 L76.3281,192.375 L76.3281,190.5 Z M78.7188,185.9688 L81.1563,185.9688 L81.1563,188.8125 L78.7188,188.8125 L78.7188,185.9688 Z " fill="#000000"/><text fill="#000000" font-family="sans-serif" font-size="14" lengthAdjust="spacing" textLength="57" x="94" y="198.1436">ex:2384</text><line style="stroke:#181818;stroke-width:0.5;" x1="66" x2="153" y1="209.2969" y2="209.2969"/><line style="stroke:#181818;stroke-width:0.5;" x1="66" x2="153" y1="217.2969" y2="217.2969"/></g></a><!--MD5=[79a3759cdc0619e500fc0318f1c9bbba]
class :CFIHOS-10000036--><a href="http://data.cfihos.org/rdl/CFIHOS-10000036" target="_top" title="http://data.cfihos.org/rdl/CFIHOS-10000036" xlink:actuate="onRequest" xlink:href="http://data.cfihos.org/rdl/CFIHOS-10000036" xlink:show="new" xlink:title="http://data.cfihos.org/rdl/CFIHOS-10000036" xlink:type="simple"><g id="elem_:CFIHOS-10000036"><rect codeLine="9" fill="#ADD8E6" height="64.2969" id=":CFIHOS-10000036" rx="2.5" ry="2.5" style="stroke:#181818;stroke-width:0.5;" width="181" x="189" y="169.2969"/><ellipse cx="211.2" cy="185.2969" fill="#ADD1B2" rx="11" ry="11" style="stroke:#181818;stroke-width:1.0;"/><path d="M214.1688,190.9375 Q213.5906,191.2344 212.95,191.375 Q212.3094,191.5313 211.6063,191.5313 Q209.1063,191.5313 207.7781,189.8906 Q206.4656,188.2344 206.4656,185.1094 Q206.4656,181.9844 207.7781,180.3281 Q209.1063,178.6719 211.6063,178.6719 Q212.3094,178.6719 212.95,178.8281 Q213.6063,178.9844 214.1688,179.2813 L214.1688,182 Q213.5438,181.4219 212.95,181.1563 Q212.3563,180.875 211.7313,180.875 Q210.3875,180.875 209.7,181.9531 Q209.0125,183.0156 209.0125,185.1094 Q209.0125,187.2031 209.7,188.2813 Q210.3875,189.3438 211.7313,189.3438 Q212.3563,189.3438 212.95,189.0781 Q213.5438,188.7969 214.1688,188.2188 L214.1688,190.9375 Z " fill="#000000"/><text fill="#000000" font-family="sans-serif" font-size="14" lengthAdjust="spacing" textLength="133" x="226.8" y="190.1436">:CFIHOS-10000036</text><line style="stroke:#181818;stroke-width:0.5;" x1="190" x2="369" y1="201.2969" y2="201.2969"/><text fill="#000000" font-family="sans-serif" font-size="14" lengthAdjust="spacing" textLength="169" x="195" y="218.292">rdfs:label "manufacturer"</text><line style="stroke:#181818;stroke-width:0.5;" x1="190" x2="369" y1="225.5938" y2="225.5938"/></g></a><!--MD5=[07ca718bc1123f9dd5a77b6ed2683453]
class ex:7342--><a href="http://example.org/7342" target="_top" title="http://example.org/7342" xlink:actuate="onRequest" xlink:href="http://example.org/7342" xlink:show="new" xlink:title="http://example.org/7342" xlink:type="simple"><g id="elem_ex:7342"><rect codeLine="20" fill="#90EE90" height="48" id="ex:7342" rx="2.5" ry="2.5" style="stroke:#181818;stroke-width:0.5;" width="89" x="150" y="318.2969"/><ellipse cx="165" cy="334.2969" fill="#FF7700" rx="11" ry="11" style="stroke:#181818;stroke-width:1.0;"/><path d="M161.3281,331.5 L166.1563,331.5 L166.1563,338.9219 L169.1719,338.9219 L169.1719,340.7969 L160.6875,340.7969 L160.6875,338.9219 L163.7188,338.9219 L163.7188,333.375 L161.3281,333.375 L161.3281,331.5 Z M163.7188,326.9688 L166.1563,326.9688 L166.1563,329.8125 L163.7188,329.8125 L163.7188,326.9688 Z " fill="#000000"/><text fill="#000000" font-family="sans-serif" font-size="14" lengthAdjust="spacing" textLength="57" x="179" y="339.1436">ex:7342</text><line style="stroke:#181818;stroke-width:0.5;" x1="151" x2="238" y1="350.2969" y2="350.2969"/><line style="stroke:#181818;stroke-width:0.5;" x1="151" x2="238" y1="358.2969" y2="358.2969"/></g></a><!--MD5=[4c4833708358c68c0e2d03743ec1299e]
class :ObjectReferenceTypeDatum--><a href="http://data.cfihos.org/rdl/ObjectReferenceTypeDatum" target="_top" title="http://data.cfihos.org/rdl/ObjectReferenceTypeDatum" xlink:actuate="onRequest" xlink:href="http://data.cfihos.org/rdl/ObjectReferenceTypeDatum" xlink:show="new" xlink:title="http://data.cfihos.org/rdl/ObjectReferenceTypeDatum" xlink:type="simple"><g id="elem_:ObjectReferenceTypeDatum"><rect codeLine="12" fill="#ADD8E6" height="64.2969" id=":ObjectReferenceTypeDatum" rx="2.5" ry="2.5" style="stroke:#181818;stroke-width:0.5;" width="286" x="274.5" y="310.2969"/><ellipse cx="312.9" cy="326.2969" fill="#ADD1B2" rx="11" ry="11" style="stroke:#181818;stroke-width:1.0;"/><path d="M315.8688,331.9375 Q315.2906,332.2344 314.65,332.375 Q314.0094,332.5313 313.3063,332.5313 Q310.8063,332.5313 309.4781,330.8906 Q308.1656,329.2344 308.1656,326.1094 Q308.1656,322.9844 309.4781,321.3281 Q310.8063,319.6719 313.3063,319.6719 Q314.0094,319.6719 314.65,319.8281 Q315.3063,319.9844 315.8688,320.2813 L315.8688,323 Q315.2438,322.4219 314.65,322.1563 Q314.0563,321.875 313.4313,321.875 Q312.0875,321.875 311.4,322.9531 Q310.7125,324.0156 310.7125,326.1094 Q310.7125,328.2031 311.4,329.2813 Q312.0875,330.3438 313.4313,330.3438 Q314.0563,330.3438 314.65,330.0781 Q315.2438,329.7969 315.8688,329.2188 L315.8688,331.9375 Z " fill="#000000"/><text fill="#000000" font-family="sans-serif" font-size="14" lengthAdjust="spacing" textLength="202" x="332.1" y="331.1436">:ObjectReferenceTypeDatum</text><line style="stroke:#181818;stroke-width:0.5;" x1="275.5" x2="559.5" y1="342.2969" y2="342.2969"/><text fill="#000000" font-family="sans-serif" font-size="14" lengthAdjust="spacing" textLength="274" x="280.5" y="359.292">rdfs:label "ObjectReferenceTypeDatum"</text><line style="stroke:#181818;stroke-width:0.5;" x1="275.5" x2="559.5" y1="366.5938" y2="366.5938"/></g></a><!--MD5=[4e22dae5d44685c3a7b8fb2e6209fbfa]
class ex:7422--><a href="http://example.org/7422" target="_top" title="http://example.org/7422" xlink:actuate="onRequest" xlink:href="http://example.org/7422" xlink:show="new" xlink:title="http://example.org/7422" xlink:type="simple"><g id="elem_ex:7422"><rect codeLine="22" fill="#90EE90" height="48" id="ex:7422" rx="2.5" ry="2.5" style="stroke:#181818;stroke-width:0.5;" width="89" x="262" y="459.2969"/><ellipse cx="277" cy="475.2969" fill="#FF7700" rx="11" ry="11" style="stroke:#181818;stroke-width:1.0;"/><path d="M273.3281,472.5 L278.1563,472.5 L278.1563,479.9219 L281.1719,479.9219 L281.1719,481.7969 L272.6875,481.7969 L272.6875,479.9219 L275.7188,479.9219 L275.7188,474.375 L273.3281,474.375 L273.3281,472.5 Z M275.7188,467.9688 L278.1563,467.9688 L278.1563,470.8125 L275.7188,470.8125 L275.7188,467.9688 Z " fill="#000000"/><text fill="#000000" font-family="sans-serif" font-size="14" lengthAdjust="spacing" textLength="57" x="291" y="480.1436">ex:7422</text><line style="stroke:#181818;stroke-width:0.5;" x1="263" x2="350" y1="491.2969" y2="491.2969"/><line style="stroke:#181818;stroke-width:0.5;" x1="263" x2="350" y1="499.2969" y2="499.2969"/></g></a><!--MD5=[3aa226323e20e0d2d6cb20500682fcff]
class :COMPANY--><a href="http://data.cfihos.org/rdl/COMPANY" target="_top" title="http://data.cfihos.org/rdl/COMPANY" xlink:actuate="onRequest" xlink:href="http://data.cfihos.org/rdl/COMPANY" xlink:show="new" xlink:title="http://data.cfihos.org/rdl/COMPANY" xlink:type="simple"><g id="elem_:COMPANY"><rect codeLine="15" fill="#ADD8E6" height="64.2969" id=":COMPANY" rx="2.5" ry="2.5" style="stroke:#181818;stroke-width:0.5;" width="159" x="386" y="451.2969"/><ellipse cx="424.4" cy="467.2969" fill="#ADD1B2" rx="11" ry="11" style="stroke:#181818;stroke-width:1.0;"/><path d="M427.3688,472.9375 Q426.7906,473.2344 426.15,473.375 Q425.5094,473.5313 424.8063,473.5313 Q422.3063,473.5313 420.9781,471.8906 Q419.6656,470.2344 419.6656,467.1094 Q419.6656,463.9844 420.9781,462.3281 Q422.3063,460.6719 424.8063,460.6719 Q425.5094,460.6719 426.15,460.8281 Q426.8063,460.9844 427.3688,461.2813 L427.3688,464 Q426.7438,463.4219 426.15,463.1563 Q425.5563,462.875 424.9313,462.875 Q423.5875,462.875 422.9,463.9531 Q422.2125,465.0156 422.2125,467.1094 Q422.2125,469.2031 422.9,470.2813 Q423.5875,471.3438 424.9313,471.3438 Q425.5563,471.3438 426.15,471.0781 Q426.7438,470.7969 427.3688,470.2188 L427.3688,472.9375 Z " fill="#000000"/><text fill="#000000" font-family="sans-serif" font-size="14" lengthAdjust="spacing" textLength="75" x="443.6" y="472.1436">:COMPANY</text><line style="stroke:#181818;stroke-width:0.5;" x1="387" x2="544" y1="483.2969" y2="483.2969"/><text fill="#000000" font-family="sans-serif" font-size="14" lengthAdjust="spacing" textLength="147" x="392" y="500.292">rdfs:label "COMPANY"</text><line style="stroke:#181818;stroke-width:0.5;" x1="387" x2="544" y1="507.5938" y2="507.5938"/></g></a><!--MD5=[44068872e19dd7fdbb4f190345f843c6]
class cfihos:5389--><a href="http://data.cfihos.org/rdl/5389" target="_top" title="http://data.cfihos.org/rdl/5389" xlink:actuate="onRequest" xlink:href="http://data.cfihos.org/rdl/5389" xlink:show="new" xlink:title="http://data.cfihos.org/rdl/5389" xlink:type="simple"><g id="elem_cfihos:5389"><rect codeLine="24" fill="#ADD8E6" height="48" id="cfihos:5389" rx="2.5" ry="2.5" style="stroke:#181818;stroke-width:0.5;" width="114" x="329.5" y="592.2969"/><ellipse cx="344.5" cy="608.2969" fill="#FF7700" rx="11" ry="11" style="stroke:#181818;stroke-width:1.0;"/><path d="M340.8281,605.5 L345.6563,605.5 L345.6563,612.9219 L348.6719,612.9219 L348.6719,614.7969 L340.1875,614.7969 L340.1875,612.9219 L343.2188,612.9219 L343.2188,607.375 L340.8281,607.375 L340.8281,605.5 Z M343.2188,600.9688 L345.6563,600.9688 L345.6563,603.8125 L343.2188,603.8125 L343.2188,600.9688 Z " fill="#000000"/><text fill="#000000" font-family="sans-serif" font-size="14" lengthAdjust="spacing" textLength="82" x="358.5" y="613.1436">cfihos:5389</text><line style="stroke:#181818;stroke-width:0.5;" x1="330.5" x2="442.5" y1="624.2969" y2="624.2969"/><line style="stroke:#181818;stroke-width:0.5;" x1="330.5" x2="442.5" y1="632.2969" y2="632.2969"/></g></a><!--MD5=[ab24de0c4a292d1c47ea1e6e0a34a849]
reverse link :CFIHOS-3000521T to ex:2384--><g id="link_:CFIHOS-3000521T_ex:2384"><path codeLine="2" d="M109.5,128.4069 C109.5,145.3069 109.5,163.2869 109.5,177.0369 " fill="none" id=":CFIHOS-3000521T-backto-ex:2384" style="stroke:#181818;stroke-width:1.0;"/><polygon fill="none" points="102.5,128.3369,109.5,108.3369,116.5,128.3369,102.5,128.3369" style="stroke:#181818;stroke-width:1.0;"/></g><!--MD5=[0e29e2448ebb73422f3ce925eaa72180]
reverse link :CFIHOS-10000036 to ex:7342--><g id="link_:CFIHOS-10000036_ex:7342"><path codeLine="3" d="M251.93,251.0869 C246.26,260.8169 240.27,270.9269 234.5,280.2969 C226.73,292.9169 217.71,306.7369 210.2,318.0369 " fill="none" id=":CFIHOS-10000036-backto-ex:7342" style="stroke:#181818;stroke-width:1.0;"/><polygon fill="none" points="245.91,247.5069,261.95,233.6569,258.04,254.4869,245.91,247.5069" style="stroke:#181818;stroke-width:1.0;"/></g><!--MD5=[32411cd1c18b26fdcb3cc4bc4e4b5363]
reverse link :ObjectReferenceTypeDatum to ex:7422--><g id="link_:ObjectReferenceTypeDatum_ex:7422"><path codeLine="4" d="M380.09,390.1469 C361.59,413.3169 340.08,440.2469 325.11,458.9969 " fill="none" id=":ObjectReferenceTypeDatum-backto-ex:7422" style="stroke:#181818;stroke-width:1.0;"/><polygon fill="none" points="374.64,385.7469,392.59,374.4869,385.58,394.4869,374.64,385.7469" style="stroke:#181818;stroke-width:1.0;"/></g><!--MD5=[760fb9d683e633b69e902308123ad266]
reverse link :COMPANY to cfihos:5389--><g id="link_:COMPANY_cfihos:5389"><path codeLine="5" d="M436.27,532.7569 C424,553.1169 410.3,575.8269 400.39,592.2669 " fill="none" id=":COMPANY-backto-cfihos:5389" style="stroke:#181818;stroke-width:1.0;"/><polygon fill="none" points="430.46,528.8569,446.78,515.3469,442.44,536.0869,430.46,528.8569" style="stroke:#181818;stroke-width:1.0;"/></g><!--MD5=[df3d28ffd7b309940cba4ea3b450f81e]
link ex:2384 to ex:7342--><g id="link_ex:2384_ex:7342"><path codeLine="26" d="M115.96,225.5069 C121.01,241.5869 128.95,263.1069 139.5,280.2969 C146.87,292.3169 156.76,304.1469 166.11,314.1469 " fill="none" id="ex:2384-to-ex:7342" style="stroke:#181818;stroke-width:1.0;"/><polygon fill="#181818" points="169.8,318.0269,166.4887,308.7513,166.3514,314.4065,160.6962,314.2692,169.8,318.0269" style="stroke:#181818;stroke-width:1.0;"/><a href="http://data.cfihos.org/rdl/hasAssigned" target="_top" title="http://data.cfihos.org/rdl/hasAssigned" xlink:actuate="onRequest" xlink:href="http://data.cfihos.org/rdl/hasAssigned" xlink:show="new" xlink:title="http://data.cfihos.org/rdl/hasAssigned" xlink:type="simple"><text fill="#0000FF" font-family="sans-serif" font-size="13" lengthAdjust="spacing" text-decoration="underline" textLength="85" x="140.5" y="276.3638">:hasAssigned</text></a></g><!--MD5=[97f246e02d0fd57d6a9ef361d6159494]
link ex:7342 to ex:7422--><g id="link_ex:7342_ex:7422"><path codeLine="27" d="M213.25,366.5669 C232.87,390.9169 263.67,429.1369 284.45,454.9269 " fill="none" id="ex:7342-to-ex:7422" style="stroke:#181818;stroke-width:1.0;"/><polygon fill="#181818" points="287.69,458.9569,285.1785,449.4336,284.5613,455.0567,278.9382,454.4395,287.69,458.9569" style="stroke:#181818;stroke-width:1.0;"/><a href="http://data.cfihos.org/rdl/hasDatum" target="_top" title="http://data.cfihos.org/rdl/hasDatum" xlink:actuate="onRequest" xlink:href="http://data.cfihos.org/rdl/hasDatum" xlink:show="new" xlink:title="http://data.cfihos.org/rdl/hasDatum" xlink:type="simple"><text fill="#0000FF" font-family="sans-serif" font-size="13" lengthAdjust="spacing" text-decoration="underline" textLength="71" x="257.5" y="417.3638">:hasDatum</text></a></g><!--MD5=[b42e3236599b69a46867d6cf7a3ef6d1]
link ex:7422 to cfihos:5389--><g id="link_ex:7422_cfihos:5389"><path codeLine="28" d="M316.63,507.4569 C323.92,523.3269 334.38,544.6069 345.5,562.2969 C350.93,570.9369 357.46,579.8869 363.69,587.9069 " fill="none" id="ex:7422-to-cfihos:5389" style="stroke:#181818;stroke-width:1.0;"/><polygon fill="#181818" points="367.11,592.2669,364.7132,582.7141,364.0285,588.3293,358.4132,587.6446,367.11,592.2669" style="stroke:#181818;stroke-width:1.0;"/><a href="http://data.cfihos.org/rdl/hasValue" target="_top" title="http://data.cfihos.org/rdl/hasValue" xlink:actuate="onRequest" xlink:href="http://data.cfihos.org/rdl/hasValue" xlink:show="new" xlink:title="http://data.cfihos.org/rdl/hasValue" xlink:type="simple"><text fill="#0000FF" font-family="sans-serif" font-size="13" lengthAdjust="spacing" text-decoration="underline" textLength="63" x="346.5" y="558.3638">:hasValue</text></a></g><rect fill="none" height="11.6406" style="stroke:none;stroke-width:1.0;" width="274" x="139.75" y="646.2969"/><text fill="#888888" font-family="sans-serif" font-size="10" lengthAdjust="spacing" textLength="67" x="139.75" y="655.5791">Generated by</text><a href="https://github.com/edmondchuc/ontogram" target="_top" title="https://github.com/edmondchuc/ontogram" xlink:actuate="onRequest" xlink:href="https://github.com/edmondchuc/ontogram" xlink:show="new" xlink:title="https://github.com/edmondchuc/ontogram" xlink:type="simple"><text fill="#0000FF" font-family="sans-serif" font-size="10" lengthAdjust="spacing" text-decoration="underline" textLength="204" x="209.75" y="655.5791">https://github.com/edmondchuc/ontogram</text></a><!--MD5=[0e408ed798ac167417667c10674c8614]
@startuml
title Untitled
":CFIHOS-3000521T" <|- - "ex:2384"
":CFIHOS-10000036" <|- - "ex:7342"
":ObjectReferenceTypeDatum" <|- - "ex:7422"
":COMPANY" <|- - "cfihos:5389"
Class ":CFIHOS-3000521T" <<ns0>> [[http://data.cfihos.org/rdl/CFIHOS-3000521T]] {
  rdfs:label "centrifugal pump"
}
Class ":CFIHOS-10000036" <<ns0>> [[http://data.cfihos.org/rdl/CFIHOS-10000036]] {
  rdfs:label "manufacturer"
}
Class ":ObjectReferenceTypeDatum" <<ns0>> [[http://data.cfihos.org/rdl/ObjectReferenceTypeDatum]] {
  rdfs:label "ObjectReferenceTypeDatum"
}
Class ":COMPANY" <<ns0>> [[http://data.cfihos.org/rdl/COMPANY]] {
  rdfs:label "COMPANY"
}
Class "ex:2384" <<ns1>><<(i,#FF7700)>> [[http://example.org/2384]] {
}
Class "ex:7342" <<ns1>><<(i,#FF7700)>> [[http://example.org/7342]] {
}
Class "ex:7422" <<ns1>><<(i,#FF7700)>> [[http://example.org/7422]] {
}
Class "cfihos:5389" <<ns0>><<(i,#FF7700)>> [[http://data.cfihos.org/rdl/5389]] {
}
"ex:2384" - -> "ex:7342" : "[[http://data.cfihos.org/rdl/hasAssigned :hasAssigned]]"
"ex:7342" - -> "ex:7422" : "[[http://data.cfihos.org/rdl/hasDatum :hasDatum]]"
"ex:7422" - -> "cfihos:5389" : "[[http://data.cfihos.org/rdl/hasValue :hasValue]]"
center footer Generated by [[https://github.com/edmondchuc/ontogram https://github.com/edmondchuc/ontogram]]

skinparam class {
  BackgroundColor<<ns0>> LightBlue
  BackgroundColor<<ns1>> LightGreen
}
hide stereotype
@enduml

PlantUML version 1.2022.7(Mon Aug 22 17:01:30 UTC 2022)
(GPL source distribution)
Java Runtime: OpenJDK Runtime Environment
JVM: OpenJDK 64-Bit Server VM
Default Encoding: UTF-8
Language: en
Country: null
--></g></svg>