<?xml version="1.0" encoding="UTF-8" standalone="no"?><svg xmlns="http://www.w3.org/2000/svg" xmlns:xlink="http://www.w3.org/1999/xlink" contentStyleType="text/css" height="524px" preserveAspectRatio="none" style="width:611px;height:524px;background:#FFFFFF;" version="1.1" viewBox="0 0 611 524" width="611px" zoomAndPan="magnify"><defs/><g><rect fill="none" height="26.2969" id="_title" style="stroke:none;stroke-width:1.0;" width="71" x="263" y="5"/><text fill="#000000" font-family="sans-serif" font-size="14" font-weight="bold" lengthAdjust="spacing" textLength="61" x="268" y="22.9951">Untitled</text><!--MD5=[98e7f2cb06b277808ee3a1bdd2aecd51]
class :CFIHOS-3000521T--><a href="http://data.cfihos.org/rdl/CFIHOS-3000521T" target="_top" title="http://data.cfihos.org/rdl/CFIHOS-3000521T" xlink:actuate="onRequest" xlink:href="http://data.cfihos.org/rdl/CFIHOS-3000521T" xlink:show="new" xlink:title="http://data.cfihos.org/rdl/CFIHOS-3000521T" xlink:type="simple"><g id="elem_:CFIHOS-3000521T"><rect codeLine="5" fill="#ADD8E6" height="64.2969" id=":CFIHOS-3000521T" rx="2.5" ry="2.5" style="stroke:#181818;stroke-width:0.5;" width="205" x="7" y="44.2969"/><ellipse cx="40" cy="60.2969" fill="#ADD1B2" rx="11" ry="11" style="stroke:#181818;stroke-width:1.0;"/><path d="M42.9688,65.9375 Q42.3906,66.2344 41.75,66.375 Q41.1094,66.5313 40.4063,66.5313 Q37.9063,66.5313 36.5781,64.8906 Q35.2656,63.2344 35.2656,60.1094 Q35.2656,56.9844 36.5781,55.3281 Q37.9063,53.6719 40.4063,53.6719 Q41.1094,53.6719 41.75,53.8281 Q42.4063,53.9844 42.9688,54.2813 L42.9688,57 Q42.3438,56.4219 41.75,56.1563 Q41.1563,55.875 40.5313,55.875 Q39.1875,55.875 38.5,56.9531 Q37.8125,58.0156 37.8125,60.1094 Q37.8125,62.2031 38.5,63.2813 Q39.1875,64.3438 40.5313,64.3438 Q41.1563,64.3438 41.75,64.0781 Q42.3438,63.7969 42.9688,63.2188 L42.9688,65.9375 Z " fill="#000000"/><text fill="#000000" font-family="sans-serif" font-size="14" lengthAdjust="spacing" textLength="133" x="58" y="65.1436">:CFIHOS-3000521T</text><line style="stroke:#181818;stroke-width:0.5;" x1="8" x2="211" y1="76.2969" y2="76.2969"/><text fill="#000000" font-family="sans-serif" font-size="14" lengthAdjust="spacing" textLength="193" x="13" y="93.292">rdfs:label "centrifugal pump"</text><line style="stroke:#181818;stroke-width:0.5;" x1="8" x2="211" y1="100.5938" y2="100.5938"/></g></a><!--MD5=[d2dabc89b2bea9a6f98e10bb98510408]
class ex:2384--><a href="http://example.org/2384" target="_top" title="http://example.org/2384" xlink:actuate="onRequest" xlink:href="http://example.org/2384" xlink:show="new" xlink:title="http://example.org/2384" xlink:type="simple"><g id="elem_ex:2384"><rect codeLine="14" fill="#90EE90" height="48" id="ex:2384" rx="2.5" ry="2.5" style="stroke:#181818;stroke-width:0.5;" width="89" x="65" y="177.2969"/><ellipse cx="80" cy="193.2969" fill="#FF7700" rx="11" ry="11" style="stroke:#181818;stroke-width:1.0;"/><path d="M76.3281,190.5 L81.1563,190.5 L81.1563,197.9219 L84.1719,197.9219 L84.1719,199.7969 L75.6875,199.7969 L75.6875,197.9219 L78.7188,197.9219 L78.7188,192.375 L76.3281,192.375 L76.3281,190.5 Z M78.7188,185.9688 L81.1563,185.9688 L81.1563,188.8125 L78.7188,188.8125 L78.7188,185.9688 Z " fill="#000000"/><text fill="#000000" font-family="sans-serif" font-size="14" lengthAdjust="spacing" textLength="57" x="94" y="198.1436">ex:2384</text><line style="stroke:#181818;stroke-width:0.5;" x1="66" x2="153" y1="209.2969" y2="209.2969"/><line style="stroke:#181818;stroke-width:0.5;" x1="66" x2="153" y1="217.2969" y2="217.2969"/></g></a><!--MD5=[71b80d3db1e7e557eb7c63d582743c4d]
class :CFIHOS-10000166--><a href="http://data.cfihos.org/rdl/CFIHOS-10000166" target="_top" title="http://data.cfihos.org/rdl/CFIHOS-10000166" xlink:actuate="onRequest" xlink:href="http://data.cfihos.org/rdl/CFIHOS-10000166" xlink:show="new" xlink:title="http://data.cfihos.org/rdl/CFIHOS-10000166" xlink:type="simple"><g id="elem_:CFIHOS-10000166"><rect codeLine="8" fill="#ADD8E6" height="64.2969" id=":CFIHOS-10000166" rx="2.5" ry="2.5" style="stroke:#181818;stroke-width:0.5;" width="165" x="189" y="169.2969"/><ellipse cx="204" cy="185.2969" fill="#ADD1B2" rx="11" ry="11" style="stroke:#181818;stroke-width:1.0;"/><path d="M206.9688,190.9375 Q206.3906,191.2344 205.75,191.375 Q205.1094,191.5313 204.4063,191.5313 Q201.9063,191.5313 200.5781,189.8906 Q199.2656,188.2344 199.2656,185.1094 Q199.2656,181.9844 200.5781,180.3281 Q201.9063,178.6719 204.4063,178.6719 Q205.1094,178.6719 205.75,178.8281 Q206.4063,178.9844 206.9688,179.2813 L206.9688,182 Q206.3438,181.4219 205.75,181.1563 Q205.1563,180.875 204.5313,180.875 Q203.1875,180.875 202.5,181.9531 Q201.8125,183.0156 201.8125,185.1094 Q201.8125,187.2031 202.5,188.2813 Q203.1875,189.3438 204.5313,189.3438 Q205.1563,189.3438 205.75,189.0781 Q206.3438,188.7969 206.9688,188.2188 L206.9688,190.9375 Z " fill="#000000"/><text fill="#000000" font-family="sans-serif" font-size="14" lengthAdjust="spacing" textLength="133" x="218" y="190.1436">:CFIHOS-10000166</text><line style="stroke:#181818;stroke-width:0.5;" x1="190" x2="353" y1="201.2969" y2="201.2969"/><text fill="#000000" font-family="sans-serif" font-size="14" lengthAdjust="spacing" textLength="142" x="195" y="218.292">rdfs:label "tag name"</text><line style="stroke:#181818;stroke-width:0.5;" x1="190" x2="353" y1="225.5938" y2="225.5938"/></g></a><!--MD5=[82223978f6eff3ceee03c2cbcc78fb4a]
class ex:5206--><a href="http://example.org/5206" target="_top" title="http://example.org/5206" xlink:actuate="onRequest" xlink:href="http://example.org/5206" xlink:show="new" xlink:title="http://example.org/5206" xlink:type="simple"><g id="elem_ex:5206"><rect codeLine="16" fill="#90EE90" height="48" id="ex:5206" rx="2.5" ry="2.5" style="stroke:#181818;stroke-width:0.5;" width="89" x="159" y="318.2969"/><ellipse cx="174" cy="334.2969" fill="#FF7700" rx="11" ry="11" style="stroke:#181818;stroke-width:1.0;"/><path d="M170.3281,331.5 L175.1563,331.5 L175.1563,338.9219 L178.1719,338.9219 L178.1719,340.7969 L169.6875,340.7969 L169.6875,338.9219 L172.7188,338.9219 L172.7188,333.375 L170.3281,333.375 L170.3281,331.5 Z M172.7188,326.9688 L175.1563,326.9688 L175.1563,329.8125 L172.7188,329.8125 L172.7188,326.9688 Z " fill="#000000"/><text fill="#000000" font-family="sans-serif" font-size="14" lengthAdjust="spacing" textLength="57" x="188" y="339.1436">ex:5206</text><line style="stroke:#181818;stroke-width:0.5;" x1="160" x2="247" y1="350.2969" y2="350.2969"/><line style="stroke:#181818;stroke-width:0.5;" x1="160" x2="247" y1="358.2969" y2="358.2969"/></g></a><!--MD5=[05afc462056ffdde6c7240c15fcb73be]
class :NonTranslatableStringTypeDatum--><a href="http://data.cfihos.org/rdl/NonTranslatableStringTypeDatum" target="_top" title="http://data.cfihos.org/rdl/NonTranslatableStringTypeDatum" xlink:actuate="onRequest" xlink:href="http://data.cfihos.org/rdl/NonTranslatableStringTypeDatum" xlink:show="new" xlink:title="http://data.cfihos.org/rdl/NonTranslatableStringTypeDatum" xlink:type="simple"><g id="elem_:NonTranslatableStringTypeDatum"><rect codeLine="11" fill="#ADD8E6" height="64.2969" id=":NonTranslatableStringTypeDatum" rx="2.5" ry="2.5" style="stroke:#181818;stroke-width:0.5;" width="321" x="283" y="310.2969"/><ellipse cx="321.4" cy="326.2969" fill="#ADD1B2" rx="11" ry="11" style="stroke:#181818;stroke-width:1.0;"/><path d="M324.3688,331.9375 Q323.7906,332.2344 323.15,332.375 Q322.5094,332.5313 321.8063,332.5313 Q319.3063,332.5313 317.9781,330.8906 Q316.6656,329.2344 316.6656,326.1094 Q316.6656,322.9844 317.9781,321.3281 Q319.3063,319.6719 321.8063,319.6719 Q322.5094,319.6719 323.15,319.8281 Q323.8063,319.9844 324.3688,320.2813 L324.3688,323 Q323.7438,322.4219 323.15,322.1563 Q322.5563,321.875 321.9313,321.875 Q320.5875,321.875 319.9,322.9531 Q319.2125,324.0156 319.2125,326.1094 Q319.2125,328.2031 319.9,329.2813 Q320.5875,330.3438 321.9313,330.3438 Q322.5563,330.3438 323.15,330.0781 Q323.7438,329.7969 324.3688,329.2188 L324.3688,331.9375 Z " fill="#000000"/><text fill="#000000" font-family="sans-serif" font-size="14" lengthAdjust="spacing" textLength="237" x="340.6" y="331.1436">:NonTranslatableStringTypeDatum</text><line style="stroke:#181818;stroke-width:0.5;" x1="284" x2="603" y1="342.2969" y2="342.2969"/><text fill="#000000" font-family="sans-serif" font-size="14" lengthAdjust="spacing" textLength="309" x="289" y="359.292">rdfs:label "NonTranslatableStringTypeDatum"</text><line style="stroke:#181818;stroke-width:0.5;" x1="284" x2="603" y1="366.5938" y2="366.5938"/></g></a><!--MD5=[0360adf54b7bae43ec78f22f4ddff3c3]
class ex:7433--><a href="http://example.org/7433" target="_top" title="http://example.org/7433" xlink:actuate="onRequest" xlink:href="http://example.org/7433" xlink:show="new" xlink:title="http://example.org/7433" xlink:type="simple"><g id="elem_ex:7433"><rect codeLine="18" fill="#90EE90" height="48" id="ex:7433" rx="2.5" ry="2.5" style="stroke:#181818;stroke-width:0.5;" width="89" x="279" y="451.2969"/><ellipse cx="294" cy="467.2969" fill="#FF7700" rx="11" ry="11" style="stroke:#181818;stroke-width:1.0;"/><path d="M290.3281,464.5 L295.1563,464.5 L295.1563,471.9219 L298.1719,471.9219 L298.1719,473.7969 L289.6875,473.7969 L289.6875,471.9219 L292.7188,471.9219 L292.7188,466.375 L290.3281,466.375 L290.3281,464.5 Z M292.7188,459.9688 L295.1563,459.9688 L295.1563,462.8125 L292.7188,462.8125 L292.7188,459.9688 Z " fill="#000000"/><text fill="#000000" font-family="sans-serif" font-size="14" lengthAdjust="spacing" textLength="57" x="308" y="472.1436">ex:7433</text><line style="stroke:#181818;stroke-width:0.5;" x1="280" x2="367" y1="483.2969" y2="483.2969"/><line style="stroke:#181818;stroke-width:0.5;" x1="280" x2="367" y1="491.2969" y2="491.2969"/></g></a><!--MD5=[ab24de0c4a292d1c47ea1e6e0a34a849]
reverse link :CFIHOS-3000521T to ex:2384--><g id="link_:CFIHOS-3000521T_ex:2384"><path codeLine="2" d="M109.5,128.4069 C109.5,145.3069 109.5,163.2869 109.5,177.0369 " fill="none" id=":CFIHOS-3000521T-backto-ex:2384" style="stroke:#181818;stroke-width:1.0;"/><polygon fill="none" points="102.5,128.3369,109.5,108.3369,116.5,128.3369,102.5,128.3369" style="stroke:#181818;stroke-width:1.0;"/></g><!--MD5=[e0c3c43f46ed0403d22034703025192d]
reverse link :CFIHOS-10000166 to ex:5206--><g id="link_:CFIHOS-10000166_ex:5206"><path codeLine="3" d="M247.42,251.5169 C236.36,274.1269 223.76,299.8869 214.9,317.9969 " fill="none" id=":CFIHOS-10000166-backto-ex:5206" style="stroke:#181818;stroke-width:1.0;"/><polygon fill="none" points="241.16,248.3769,256.24,233.4869,253.74,254.5369,241.16,248.3769" style="stroke:#181818;stroke-width:1.0;"/></g><!--MD5=[afa2d7ba9c0c6e571fe976cd49941e2b]
reverse link :NonTranslatableStringTypeDatum to ex:7433--><g id="link_:NonTranslatableStringTypeDatum_ex:7433"><path codeLine="4" d="M401.36,389.2969 C382.16,410.2569 360.27,434.1569 344.6,451.2669 " fill="none" id=":NonTranslatableStringTypeDatum-backto-ex:7433" style="stroke:#181818;stroke-width:1.0;"/><polygon fill="none" points="396.39,384.3569,415.06,374.3469,406.71,393.8169,396.39,384.3569" style="stroke:#181818;stroke-width:1.0;"/></g><!--MD5=[4f688559d8479c9b84e115bd1ebbca8f]
link ex:2384 to ex:5206--><g id="link_ex:2384_ex:5206"><path codeLine="20" d="M114.69,225.4869 C119.05,241.7469 126.38,263.4969 137.5,280.2969 C145.86,292.9269 157.37,304.7469 168.44,314.5669 " fill="none" id="ex:2384-to-ex:5206" style="stroke:#181818;stroke-width:1.0;"/><polygon fill="#181818" points="172.49,318.0869,168.3316,309.1589,168.72,314.8024,163.0765,315.1909,172.49,318.0869" style="stroke:#181818;stroke-width:1.0;"/><a href="http://data.cfihos.org/rdl/hasAssigned" target="_top" title="http://data.cfihos.org/rdl/hasAssigned" xlink:actuate="onRequest" xlink:href="http://data.cfihos.org/rdl/hasAssigned" xlink:show="new" xlink:title="http://data.cfihos.org/rdl/hasAssigned" xlink:type="simple"><text fill="#0000FF" font-family="sans-serif" font-size="13" lengthAdjust="spacing" text-decoration="underline" textLength="85" x="138.5" y="276.3638">:hasAssigned</text></a></g><!--MD5=[95bd2cab1b435712a5a9a0f6bc9aef18]
link ex:5206 to ex:7433--><g id="link_ex:5206_ex:7433"><path codeLine="21" d="M224.68,366.4169 C245.37,389.0069 276.86,423.3869 298.71,447.2369 " fill="none" id="ex:5206-to-ex:7433" style="stroke:#181818;stroke-width:1.0;"/><polygon fill="#181818" points="302.13,450.9669,298.9873,441.6329,298.7475,447.2847,293.0957,447.0449,302.13,450.9669" style="stroke:#181818;stroke-width:1.0;"/><a href="http://data.cfihos.org/rdl/hasDatum" target="_top" title="http://data.cfihos.org/rdl/hasDatum" xlink:actuate="onRequest" xlink:href="http://data.cfihos.org/rdl/hasDatum" xlink:show="new" xlink:title="http://data.cfihos.org/rdl/hasDatum" xlink:type="simple"><text fill="#0000FF" font-family="sans-serif" font-size="13" lengthAdjust="spacing" text-decoration="underline" textLength="71" x="274.5" y="417.3638">:hasDatum</text></a></g><rect fill="none" height="11.6406" style="stroke:none;stroke-width:1.0;" width="274" x="161.5" y="505.2969"/><text fill="#888888" font-family="sans-serif" font-size="10" lengthAdjust="spacing" textLength="67" x="161.5" y="514.5791">Generated by</text><a href="https://github.com/edmondchuc/ontogram" target="_top" title="https://github.com/edmondchuc/ontogram" xlink:actuate="onRequest" xlink:href="https://github.com/edmondchuc/ontogram" xlink:show="new" xlink:title="https://github.com/edmondchuc/ontogram" xlink:type="simple"><text fill="#0000FF" font-family="sans-serif" font-size="10" lengthAdjust="spacing" text-decoration="underline" textLength="204" x="231.5" y="514.5791">https://github.com/edmondchuc/ontogram</text></a><!--MD5=[0e8dddb02358ec96c273b0db688f2653]
@startuml
title Untitled
":CFIHOS-3000521T" <|- - "ex:2384"
":CFIHOS-10000166" <|- - "ex:5206"
":NonTranslatableStringTypeDatum" <|- - "ex:7433"
Class ":CFIHOS-3000521T" <<ns0>> [[http://data.cfihos.org/rdl/CFIHOS-3000521T]] {
  rdfs:label "centrifugal pump"
}
Class ":CFIHOS-10000166" <<ns0>> [[http://data.cfihos.org/rdl/CFIHOS-10000166]] {
  rdfs:label "tag name"
}
Class ":NonTranslatableStringTypeDatum" <<ns0>> [[http://data.cfihos.org/rdl/NonTranslatableStringTypeDatum]] {
  rdfs:label "NonTranslatableStringTypeDatum"
}
Class "ex:2384" <<ns1>><<(i,#FF7700)>> [[http://example.org/2384]] {
}
Class "ex:5206" <<ns1>><<(i,#FF7700)>> [[http://example.org/5206]] {
}
Class "ex:7433" <<ns1>><<(i,#FF7700)>> [[http://example.org/7433]] {
}
"ex:2384" - -> "ex:5206" : "[[http://data.cfihos.org/rdl/hasAssigned :hasAssigned]]"
"ex:5206" - -> "ex:7433" : "[[http://data.cfihos.org/rdl/hasDatum :hasDatum]]"
center footer Generated by [[https://github.com/edmondchuc/ontogram https://github.com/edmondchuc/ontogram]]

skinparam class {
  BackgroundColor<<ns0>> LightBlue
  BackgroundColor<<ns1>> LightGreen
}
hide stereotype
@enduml

PlantUML version 1.2022.7(Mon Aug 22 17:01:30 UTC 2022)
(GPL source distribution)
Java Runtime: OpenJDK Runtime Environment
JVM: OpenJDK 64-Bit Server VM
Default Encoding: UTF-8
Language: en
Country: null
--></g></svg>