<svg xmlns="http://www.w3.org/2000/svg" xmlns:xlink="http://www.w3.org/1999/xlink" contentStyleType="text/css" data-diagram-type="CLASS" height="603px" preserveAspectRatio="none" style="width:508px;height:603px;background:#FFFFFF;" version="1.1" viewBox="0 0 508 603" width="508px" zoomAndPan="magnify"><?plantuml 1.2026.7beta1?><defs/><g><g class="title" data-source-line="1"><text fill="#000000" font-family="sans-serif" font-size="14" font-weight="700" lengthAdjust="spacing" textLength="63.834" x="218.7433" y="22.9951">Untitled</text></g><!--class :CFIHOS-30000496T--><g class="entity" data-qualified-name=".CFIHOS-30000496T" data-source-line="2" id="ent0001"><a href="http://data.cfihos.org/rdl/CFIHOS-30000496T" target="_top" title="http://data.cfihos.org/rdl/CFIHOS-30000496T" xlink:actuate="onRequest" xlink:href="http://data.cfihos.org/rdl/CFIHOS-30000496T" xlink:show="new" xlink:title="http://data.cfihos.org/rdl/CFIHOS-30000496T" xlink:type="simple"><rect fill="#F1F1F1" height="48" rx="2.5" ry="2.5" style="stroke:#181818;stroke-width:0.5;" width="173.9688" x="7" y="44.2969"/><ellipse cx="22" cy="60.2969" fill="#ADD1B2" rx="11" ry="11" style="stroke:#181818;stroke-width:1;"/><path d="M24.9688,65.9375 Q24.3906,66.2344 23.75,66.375 Q23.1094,66.5313 22.4063,66.5313 Q19.9063,66.5313 18.5781,64.8906 Q17.2656,63.2344 17.2656,60.1094 Q17.2656,56.9844 18.5781,55.3281 Q19.9063,53.6719 22.4063,53.6719 Q23.1094,53.6719 23.75,53.8281 Q24.4063,53.9844 24.9688,54.2813 L24.9688,57 Q24.3438,56.4219 23.75,56.1563 Q23.1563,55.875 22.5313,55.875 Q21.1875,55.875 20.5,56.9531 Q19.8125,58.0156 19.8125,60.1094 Q19.8125,62.2031 20.5,63.2813 Q21.1875,64.3438 22.5313,64.3438 Q23.1563,64.3438 23.75,64.0781 Q24.3438,63.7969 24.9688,63.2188 L24.9688,65.9375 Z " fill="#000000"/><text fill="#000000" font-family="sans-serif" font-size="14" lengthAdjust="spacing" textLength="141.9688" x="36" y="65.1436">:CFIHOS-30000496T</text><line style="stroke:#181818;stroke-width:0.5;" x1="8" x2="179.9688" y1="76.2969" y2="76.2969"/><line style="stroke:#181818;stroke-width:0.5;" x1="8" x2="179.9688" y1="84.2969" y2="84.2969"/></a></g><!--class alice:5384--><g class="entity" data-qualified-name="alice.5384" data-source-line="2" id="ent0002"><a href="http://example.org/5384" target="_top" title="http://example.org/5384" xlink:actuate="onRequest" xlink:href="http://example.org/5384" xlink:show="new" xlink:title="http://example.org/5384" xlink:type="simple"><rect fill="#F1F1F1" height="48" rx="2.5" ry="2.5" style="stroke:#181818;stroke-width:0.5;" width="105.0146" x="41.48" y="153.2969"/><ellipse cx="56.48" cy="169.2969" fill="#ADD1B2" rx="11" ry="11" style="stroke:#181818;stroke-width:1;"/><path d="M59.4488,174.9375 Q58.8706,175.2344 58.23,175.375 Q57.5894,175.5313 56.8863,175.5313 Q54.3863,175.5313 53.0581,173.8906 Q51.7456,172.2344 51.7456,169.1094 Q51.7456,165.9844 53.0581,164.3281 Q54.3863,162.6719 56.8863,162.6719 Q57.5894,162.6719 58.23,162.8281 Q58.8863,162.9844 59.4488,163.2813 L59.4488,166 Q58.8238,165.4219 58.23,165.1563 Q57.6363,164.875 57.0113,164.875 Q55.6675,164.875 54.98,165.9531 Q54.2925,167.0156 54.2925,169.1094 Q54.2925,171.2031 54.98,172.2813 Q55.6675,173.3438 57.0113,173.3438 Q57.6363,173.3438 58.23,173.0781 Q58.8238,172.7969 59.4488,172.2188 L59.4488,174.9375 Z " fill="#000000"/><text fill="#000000" font-family="sans-serif" font-size="14" lengthAdjust="spacing" textLength="73.0146" x="70.48" y="174.1436">alice:5384</text><line style="stroke:#181818;stroke-width:0.5;" x1="42.48" x2="145.4946" y1="185.2969" y2="185.2969"/><line style="stroke:#181818;stroke-width:0.5;" x1="42.48" x2="145.4946" y1="193.2969" y2="193.2969"/></a></g><!--class :CFIHOS-40000223--><g class="entity" data-qualified-name=".CFIHOS-40000223" data-source-line="3" id="ent0004"><a href="http://data.cfihos.org/rdl/CFIHOS-40000223" target="_top" title="http://data.cfihos.org/rdl/CFIHOS-40000223" xlink:actuate="onRequest" xlink:href="http://data.cfihos.org/rdl/CFIHOS-40000223" xlink:show="new" xlink:title="http://data.cfihos.org/rdl/CFIHOS-40000223" xlink:type="simple"><rect fill="#F1F1F1" height="48" rx="2.5" ry="2.5" style="stroke:#181818;stroke-width:0.5;" width="165.417" x="181.28" y="153.2969"/><ellipse cx="196.28" cy="169.2969" fill="#ADD1B2" rx="11" ry="11" style="stroke:#181818;stroke-width:1;"/><path d="M199.2488,174.9375 Q198.6706,175.2344 198.03,175.375 Q197.3894,175.5313 196.6863,175.5313 Q194.1863,175.5313 192.8581,173.8906 Q191.5456,172.2344 191.5456,169.1094 Q191.5456,165.9844 192.8581,164.3281 Q194.1863,162.6719 196.6863,162.6719 Q197.3894,162.6719 198.03,162.8281 Q198.6863,162.9844 199.2488,163.2813 L199.2488,166 Q198.6238,165.4219 198.03,165.1563 Q197.4363,164.875 196.8113,164.875 Q195.4675,164.875 194.78,165.9531 Q194.0925,167.0156 194.0925,169.1094 Q194.0925,171.2031 194.78,172.2813 Q195.4675,173.3438 196.8113,173.3438 Q197.4363,173.3438 198.03,173.0781 Q198.6238,172.7969 199.2488,172.2188 L199.2488,174.9375 Z " fill="#000000"/><text fill="#000000" font-family="sans-serif" font-size="14" lengthAdjust="spacing" textLength="133.417" x="210.28" y="174.1436">:CFIHOS-40000223</text><line style="stroke:#181818;stroke-width:0.5;" x1="182.28" x2="345.697" y1="185.2969" y2="185.2969"/><line style="stroke:#181818;stroke-width:0.5;" x1="182.28" x2="345.697" y1="193.2969" y2="193.2969"/></a></g><!--class alice:7329--><g class="entity" data-qualified-name="alice.7329" data-source-line="3" id="ent0005"><a href="http://example.org/7329" target="_top" title="http://example.org/7329" xlink:actuate="onRequest" xlink:href="http://example.org/7329" xlink:show="new" xlink:title="http://example.org/7329" xlink:type="simple"><rect fill="#F1F1F1" height="48" rx="2.5" ry="2.5" style="stroke:#181818;stroke-width:0.5;" width="105.0146" x="126.48" y="278.2969"/><ellipse cx="141.48" cy="294.2969" fill="#ADD1B2" rx="11" ry="11" style="stroke:#181818;stroke-width:1;"/><path d="M144.4488,299.9375 Q143.8706,300.2344 143.23,300.375 Q142.5894,300.5313 141.8863,300.5313 Q139.3863,300.5313 138.0581,298.8906 Q136.7456,297.2344 136.7456,294.1094 Q136.7456,290.9844 138.0581,289.3281 Q139.3863,287.6719 141.8863,287.6719 Q142.5894,287.6719 143.23,287.8281 Q143.8863,287.9844 144.4488,288.2813 L144.4488,291 Q143.8238,290.4219 143.23,290.1563 Q142.6363,289.875 142.0113,289.875 Q140.6675,289.875 139.98,290.9531 Q139.2925,292.0156 139.2925,294.1094 Q139.2925,296.2031 139.98,297.2813 Q140.6675,298.3438 142.0113,298.3438 Q142.6363,298.3438 143.23,298.0781 Q143.8238,297.7969 144.4488,297.2188 L144.4488,299.9375 Z " fill="#000000"/><text fill="#000000" font-family="sans-serif" font-size="14" lengthAdjust="spacing" textLength="73.0146" x="155.48" y="299.1436">alice:7329</text><line style="stroke:#181818;stroke-width:0.5;" x1="127.48" x2="230.4946" y1="310.2969" y2="310.2969"/><line style="stroke:#181818;stroke-width:0.5;" x1="127.48" x2="230.4946" y1="318.2969" y2="318.2969"/></a></g><!--class :ClassReferenceTypeDatum--><g class="entity" data-qualified-name=".ClassReferenceTypeDatum" data-source-line="4" id="ent0007"><a href="http://data.cfihos.org/rdl/ClassReferenceTypeDatum" target="_top" title="http://data.cfihos.org/rdl/ClassReferenceTypeDatum" xlink:actuate="onRequest" xlink:href="http://data.cfihos.org/rdl/ClassReferenceTypeDatum" xlink:show="new" xlink:title="http://data.cfihos.org/rdl/ClassReferenceTypeDatum" xlink:type="simple"><rect fill="#F1F1F1" height="48" rx="2.5" ry="2.5" style="stroke:#181818;stroke-width:0.5;" width="226.6807" x="266.64" y="278.2969"/><ellipse cx="281.64" cy="294.2969" fill="#ADD1B2" rx="11" ry="11" style="stroke:#181818;stroke-width:1;"/><path d="M284.6088,299.9375 Q284.0306,300.2344 283.39,300.375 Q282.7494,300.5313 282.0463,300.5313 Q279.5463,300.5313 278.2181,298.8906 Q276.9056,297.2344 276.9056,294.1094 Q276.9056,290.9844 278.2181,289.3281 Q279.5463,287.6719 282.0463,287.6719 Q282.7494,287.6719 283.39,287.8281 Q284.0463,287.9844 284.6088,288.2813 L284.6088,291 Q283.9838,290.4219 283.39,290.1563 Q282.7963,289.875 282.1713,289.875 Q280.8275,289.875 280.14,290.9531 Q279.4525,292.0156 279.4525,294.1094 Q279.4525,296.2031 280.14,297.2813 Q280.8275,298.3438 282.1713,298.3438 Q282.7963,298.3438 283.39,298.0781 Q283.9838,297.7969 284.6088,297.2188 L284.6088,299.9375 Z " fill="#000000"/><text fill="#000000" font-family="sans-serif" font-size="14" lengthAdjust="spacing" textLength="194.6807" x="295.64" y="299.1436">:ClassReferenceTypeDatum</text><line style="stroke:#181818;stroke-width:0.5;" x1="267.64" x2="492.3207" y1="310.2969" y2="310.2969"/><line style="stroke:#181818;stroke-width:0.5;" x1="267.64" x2="492.3207" y1="318.2969" y2="318.2969"/></a></g><!--class alice:6422--><g class="entity" data-qualified-name="alice.6422" data-source-line="4" id="ent0008"><a href="http://example.org/6422" target="_top" title="http://example.org/6422" xlink:actuate="onRequest" xlink:href="http://example.org/6422" xlink:show="new" xlink:title="http://example.org/6422" xlink:type="simple"><rect fill="#F1F1F1" height="48" rx="2.5" ry="2.5" style="stroke:#181818;stroke-width:0.5;" width="105.0146" x="226.48" y="403.2969"/><ellipse cx="241.48" cy="419.2969" fill="#ADD1B2" rx="11" ry="11" style="stroke:#181818;stroke-width:1;"/><path d="M244.4488,424.9375 Q243.8706,425.2344 243.23,425.375 Q242.5894,425.5313 241.8863,425.5313 Q239.3863,425.5313 238.0581,423.8906 Q236.7456,422.2344 236.7456,419.1094 Q236.7456,415.9844 238.0581,414.3281 Q239.3863,412.6719 241.8863,412.6719 Q242.5894,412.6719 243.23,412.8281 Q243.8863,412.9844 244.4488,413.2813 L244.4488,416 Q243.8238,415.4219 243.23,415.1563 Q242.6363,414.875 242.0113,414.875 Q240.6675,414.875 239.98,415.9531 Q239.2925,417.0156 239.2925,419.1094 Q239.2925,421.2031 239.98,422.2813 Q240.6675,423.3438 242.0113,423.3438 Q242.6363,423.3438 243.23,423.0781 Q243.8238,422.7969 244.4488,422.2188 L244.4488,424.9375 Z " fill="#000000"/><text fill="#000000" font-family="sans-serif" font-size="14" lengthAdjust="spacing" textLength="73.0146" x="255.48" y="424.1436">alice:6422</text><line style="stroke:#181818;stroke-width:0.5;" x1="227.48" x2="330.4946" y1="435.2969" y2="435.2969"/><line style="stroke:#181818;stroke-width:0.5;" x1="227.48" x2="330.4946" y1="443.2969" y2="443.2969"/></a></g><!--class :CFIHOS-60000209--><g class="entity" data-qualified-name=".CFIHOS-60000209" data-source-line="11" id="ent0010"><a href="http://data.cfihos.org/rdl/CFIHOS-60000209" target="_top" title="http://data.cfihos.org/rdl/CFIHOS-60000209" xlink:actuate="onRequest" xlink:href="http://data.cfihos.org/rdl/CFIHOS-60000209" xlink:show="new" xlink:title="http://data.cfihos.org/rdl/CFIHOS-60000209" xlink:type="simple"><rect fill="#F1F1F1" height="48" rx="2.5" ry="2.5" style="stroke:#181818;stroke-width:0.5;" width="165.417" x="196.28" y="528.2969"/><ellipse cx="211.28" cy="544.2969" fill="#ADD1B2" rx="11" ry="11" style="stroke:#181818;stroke-width:1;"/><path d="M214.2488,549.9375 Q213.6706,550.2344 213.03,550.375 Q212.3894,550.5313 211.6863,550.5313 Q209.1863,550.5313 207.8581,548.8906 Q206.5456,547.2344 206.5456,544.1094 Q206.5456,540.9844 207.8581,539.3281 Q209.1863,537.6719 211.6863,537.6719 Q212.3894,537.6719 213.03,537.8281 Q213.6863,537.9844 214.2488,538.2813 L214.2488,541 Q213.6238,540.4219 213.03,540.1563 Q212.4363,539.875 211.8113,539.875 Q210.4675,539.875 209.78,540.9531 Q209.0925,542.0156 209.0925,544.1094 Q209.0925,546.2031 209.78,547.2813 Q210.4675,548.3438 211.8113,548.3438 Q212.4363,548.3438 213.03,548.0781 Q213.6238,547.7969 214.2488,547.2188 L214.2488,549.9375 Z " fill="#000000"/><text fill="#000000" font-family="sans-serif" font-size="14" lengthAdjust="spacing" textLength="133.417" x="225.28" y="549.1436">:CFIHOS-60000209</text><line style="stroke:#181818;stroke-width:0.5;" x1="197.28" x2="360.697" y1="560.2969" y2="560.2969"/><line style="stroke:#181818;stroke-width:0.5;" x1="197.28" x2="360.697" y1="568.2969" y2="568.2969"/></a></g><!--reverse link :CFIHOS-30000496T to alice:5384--><g class="link" data-entity-1="ent0001" data-entity-2="ent0002" data-link-type="extension" data-source-line="2" id="lnk3"><path codeLine="2" d="M93.98,110.7769 C93.98,128.6169 93.98,135.0469 93.98,152.8669" fill="none" id=":CFIHOS-30000496T-backto-alice:5384" style="stroke:#181818;stroke-width:1;"/><polygon fill="none" points="93.98,92.7769,87.98,110.7769,99.98,110.7769,93.98,92.7769" style="stroke:#181818;stroke-width:1;stroke-linejoin:miter;stroke-miterlimit:10;"/></g><!--reverse link :CFIHOS-40000223 to alice:7329--><g class="link" data-entity-1="ent0004" data-entity-2="ent0005" data-link-type="extension" data-source-line="3" id="lnk6"><path codeLine="3" d="M237.5655,216.5241 C222.4355,238.4141 210.22,256.0969 195.11,277.9569" fill="none" id=":CFIHOS-40000223-backto-alice:7329" style="stroke:#181818;stroke-width:1;"/><polygon fill="none" points="247.8,201.7169,232.6297,213.1126,242.5012,219.9356,247.8,201.7169" style="stroke:#181818;stroke-width:1;stroke-linejoin:miter;stroke-miterlimit:10;"/></g><!--reverse link :ClassReferenceTypeDatum to alice:6422--><g class="link" data-entity-1="ent0007" data-entity-2="ent0008" data-link-type="extension" data-source-line="4" id="lnk9"><path codeLine="4" d="M373.134,344.1661 C370.174,358.7261 368.21,359.6269 357.98,373.2969 C349.28,384.9369 337.22,394.8369 325.15,402.8169" fill="none" id=":ClassReferenceTypeDatum-backto-alice:6422" style="stroke:#181818;stroke-width:1;"/><polygon fill="none" points="376.72,326.5269,367.2543,342.9707,379.0137,345.3614,376.72,326.5269" style="stroke:#181818;stroke-width:1;stroke-linejoin:miter;stroke-miterlimit:10;"/></g><!--link alice:5384 to alice:7329--><g class="link" data-entity-1="ent0002" data-entity-2="ent0005" data-link-type="dependency" data-source-line="19" id="lnk11"><path codeLine="19" d="M105.48,201.7169 C112.71,215.6669 122.6,233.4869 132.98,248.2969 C140.12,258.4669 145.5432,265.2242 153.4932,274.1442" fill="none" id="alice:5384-to-alice:7329" style="stroke:#181818;stroke-width:1;"/><polygon fill="#181818" points="156.82,277.8769,153.818,268.4967,153.4932,274.1442,147.8457,273.8195,156.82,277.8769" style="stroke:#181818;stroke-width:1;stroke-linejoin:miter;stroke-miterlimit:10;"/><a href="http://example.org/lis/hasQuality" target="_top" title="http://example.org/lis/hasQuality" xlink:actuate="onRequest" xlink:href="http://example.org/lis/hasQuality" xlink:show="new" xlink:title="http://example.org/lis/hasQuality" xlink:type="simple"><text fill="#0000FF" font-family="sans-serif" font-size="13" lengthAdjust="spacing" text-decoration="underline" textLength="73.8105" x="133.98" y="244.3638">:hasQuality</text></a></g><!--link alice:7329 to alice:6422--><g class="link" data-entity-1="ent0005" data-entity-2="ent0008" data-link-type="dependency" data-source-line="20" id="lnk12"><path codeLine="20" d="M189.42,326.6169 C196.4,340.8769 206.41,359.0369 217.98,373.2969 C226.65,383.9669 233.793,391.0191 244.033,399.6291" fill="none" id="alice:7329-to-alice:6422" style="stroke:#181818;stroke-width:1;"/><polygon fill="#181818" points="247.86,402.8469,243.5457,393.9933,244.033,399.6291,238.3972,400.1164,247.86,402.8469" style="stroke:#181818;stroke-width:1;stroke-linejoin:miter;stroke-miterlimit:10;"/><a href="http://example.org/lis/QualityQuantifiedAs" target="_top" title="http://example.org/lis/QualityQuantifiedAs" xlink:actuate="onRequest" xlink:href="http://example.org/lis/QualityQuantifiedAs" xlink:show="new" xlink:title="http://example.org/lis/QualityQuantifiedAs" xlink:type="simple"><text fill="#0000FF" font-family="sans-serif" font-size="13" lengthAdjust="spacing" text-decoration="underline" textLength="134.3228" x="218.98" y="369.3638">:QualityQuantifiedAs</text></a></g><!--link alice:6422 to :CFIHOS-60000209--><g class="link" data-entity-1="ent0008" data-entity-2="ent0010" data-link-type="dependency" data-source-line="21" id="lnk13"><path codeLine="21" d="M278.98,451.7169 C278.98,473.6069 278.98,501.0969 278.98,522.9569" fill="none" id="alice:6422-to-:CFIHOS-60000209" style="stroke:#181818;stroke-width:1;"/><polygon fill="#181818" points="278.98,527.9569,282.98,518.9569,278.98,522.9569,274.98,518.9569,278.98,527.9569" style="stroke:#181818;stroke-width:1;stroke-linejoin:miter;stroke-miterlimit:10;"/><a href="http://example.org/lis/hasValue" target="_top" title="http://example.org/lis/hasValue" xlink:actuate="onRequest" xlink:href="http://example.org/lis/hasValue" xlink:show="new" xlink:title="http://example.org/lis/hasValue" xlink:type="simple"><text fill="#0000FF" font-family="sans-serif" font-size="13" lengthAdjust="spacing" text-decoration="underline" textLength="64.0669" x="279.98" y="494.3638">:hasValue</text></a></g><g class="footer" data-source-line="22"><text fill="#888888" font-family="sans-serif" font-size="10" lengthAdjust="spacing" textLength="68.4961" x="108.4582" y="594.5791">Generated by</text><a href="https://github.com/edmondchuc/ontogram" target="_top" title="https://github.com/edmondchuc/ontogram" xlink:actuate="onRequest" xlink:href="https://github.com/edmondchuc/ontogram" xlink:show="new" xlink:title="https://github.com/edmondchuc/ontogram" xlink:type="simple"><text fill="#0000FF" font-family="sans-serif" font-size="10" lengthAdjust="spacing" text-decoration="underline" textLength="212.7295" x="180.133" y="594.5791">https://github.com/edmondchuc/ontogram</text></a></g><?plantuml-src ZP9VJuCm5CNV-HHDtraNG7J4c1YDVvwCEdrPUEZQoo0fbD2IIDJlBkssCB3EyNARtdD-zy155re0UgkqgTp3oStTuyFJgn_E-oTQn4kCBhzy7s4g2WR9MNWHuK4L6LKGX6FHUHWih4XGfLuWWmOg1ikkXbkgst8iZgCWm9wL8jVqrIhNkau8uLJJ6SkANAgPR3QauO9CvMcAFhtlAMr8UGfihvwo_dgPuqotovqpjfFdYzDoxjLZri6Q1WfyqB8MO0ccvRBOfRajfkMosDMvBQQriumY-VxLU622i1CW2aLogfxRNgmxb0pdDCNU2770t2Ownjn1-jB_yba1_5gXn75vC6KBjLD-R-gV_EzKj63JsvEXCgWqD2YJqfHxgA2X6ZXQTxjFgNhKfj1vkvunMHBWfQmuorj6PANbfg4bEasMfZy0?></g></svg>